<svg xmlns="http://www.w3.org/2000/svg" width="1200" height="630" viewBox="0 0 1200 630">
	<title>sixtom — AI built your first draft. i build your solution.</title>
	<defs>
		<radialGradient id="scrim" cx="50%" cy="44%" r="62%">
			<stop offset="0%" stop-color="#161616" stop-opacity="0.62"/>
			<stop offset="100%" stop-color="#161616" stop-opacity="0.18"/>
		</radialGradient>
	</defs>
	<rect width="1200" height="630" fill="#161616"/>
	<g><circle cx="14.1" cy="14.1" r="31.0" fill="rgb(0,187,190)" fill-opacity="0.703"/><circle cx="22.6" cy="64.3" r="32.6" fill="rgb(0,188,193)" fill-opacity="0.740"/><circle cx="19.2" cy="104.7" r="32.5" fill="rgb(0,188,193)" fill-opacity="0.738"/><circle cx="23.2" cy="142.8" r="25.9" fill="rgb(0,184,181)" fill-opacity="0.585"/><circle cx="21.9" cy="175.2" r="17.2" fill="rgb(0,179,164)" fill-opacity="0.386"/><circle cx="20.8" cy="215.6" r="8.6" fill="rgb(0,173,148)" fill-opacity="0.189"/><circle cx="24.9" cy="260.8" r="8.9" fill="rgb(0,173,148)" fill-opacity="0.197"/><circle cx="13.1" cy="296.4" r="14.8" fill="rgb(0,177,160)" fill-opacity="0.330"/><circle cx="14.8" cy="337.7" r="21.9" fill="rgb(0,182,173)" fill-opacity="0.494"/><circle cx="21.4" cy="380.9" r="25.0" fill="rgb(0,184,179)" fill-opacity="0.565"/><circle cx="25.0" cy="407.8" r="26.0" fill="rgb(0,184,181)" fill-opacity="0.589"/><circle cx="27.0" cy="449.9" r="29.0" fill="rgb(0,186,186)" fill-opacity="0.658"/><circle cx="18.8" cy="494.7" r="31.7" fill="rgb(0,188,191)" fill-opacity="0.719"/><circle cx="16.5" cy="522.5" r="32.0" fill="rgb(0,188,192)" fill-opacity="0.725"/><circle cx="13.2" cy="580.2" r="32.2" fill="rgb(0,188,192)" fill-opacity="0.731"/><circle cx="17.6" cy="619.0" r="32.8" fill="rgb(0,188,193)" fill-opacity="0.743"/><circle cx="64.3" cy="22.6" r="30.0" fill="rgb(0,187,188)" fill-opacity="0.679"/><circle cx="61.0" cy="61.0" r="30.9" fill="rgb(0,187,190)" fill-opacity="0.701"/><circle cx="55.4" cy="95.0" r="31.7" fill="rgb(0,188,191)" fill-opacity="0.718"/><circle cx="63.4" cy="137.7" r="25.7" fill="rgb(0,184,180)" fill-opacity="0.582"/><circle cx="51.2" cy="179.8" r="15.9" fill="rgb(0,178,162)" fill-opacity="0.355"/><circle cx="63.6" cy="213.6" r="9.4" fill="rgb(0,173,149)" fill-opacity="0.208"/><circle cx="52.2" cy="255.0" r="8.7" fill="rgb(0,173,148)" fill-opacity="0.192"/><circle cx="52.5" cy="288.5" r="13.6" fill="rgb(0,176,157)" fill-opacity="0.303"/><circle cx="55.4" cy="337.9" r="22.4" fill="rgb(0,182,174)" fill-opacity="0.505"/><circle cx="53.6" cy="376.5" r="25.3" fill="rgb(0,184,180)" fill-opacity="0.572"/><circle cx="53.6" cy="411.3" r="26.3" fill="rgb(0,184,181)" fill-opacity="0.594"/><circle cx="57.6" cy="457.6" r="28.8" fill="rgb(0,186,186)" fill-opacity="0.651"/><circle cx="66.7" cy="484.6" r="29.3" fill="rgb(0,186,187)" fill-opacity="0.663"/><circle cx="57.6" cy="525.6" r="30.6" fill="rgb(0,187,189)" fill-opacity="0.695"/><circle cx="54.8" cy="576.2" r="30.6" fill="rgb(0,187,189)" fill-opacity="0.693"/><circle cx="60.7" cy="603.7" r="29.4" fill="rgb(0,186,187)" fill-opacity="0.665"/><circle cx="104.7" cy="19.2" r="26.6" fill="rgb(0,185,182)" fill-opacity="0.602"/><circle cx="95.0" cy="55.4" r="27.5" fill="rgb(0,185,184)" fill-opacity="0.622"/><circle cx="104.9" cy="104.9" r="26.0" fill="rgb(0,184,181)" fill-opacity="0.589"/><circle cx="97.3" cy="145.8" r="21.8" fill="rgb(0,182,173)" fill-opacity="0.492"/><circle cx="105.6" cy="172.4" r="16.7" fill="rgb(0,178,163)" fill-opacity="0.376"/><circle cx="98.2" cy="212.8" r="10.8" fill="rgb(0,174,152)" fill-opacity="0.239"/><circle cx="103.1" cy="257.9" r="11.2" fill="rgb(0,174,153)" fill-opacity="0.248"/><circle cx="103.0" cy="297.4" r="17.0" fill="rgb(0,178,164)" fill-opacity="0.383"/><circle cx="92.4" cy="332.8" r="22.7" fill="rgb(0,182,175)" fill-opacity="0.513"/><circle cx="102.3" cy="371.7" r="26.6" fill="rgb(0,185,182)" fill-opacity="0.602"/><circle cx="100.5" cy="408.3" r="26.4" fill="rgb(0,185,182)" fill-opacity="0.598"/><circle cx="103.8" cy="447.6" r="25.9" fill="rgb(0,184,181)" fill-opacity="0.586"/><circle cx="98.6" cy="499.0" r="25.9" fill="rgb(0,184,181)" fill-opacity="0.586"/><circle cx="100.3" cy="527.4" r="25.5" fill="rgb(0,184,180)" fill-opacity="0.577"/><circle cx="93.0" cy="570.0" r="24.6" fill="rgb(0,183,178)" fill-opacity="0.555"/><circle cx="103.5" cy="609.2" r="19.6" fill="rgb(0,180,169)" fill-opacity="0.442"/><circle cx="142.8" cy="23.2" r="23.8" fill="rgb(0,183,177)" fill-opacity="0.539"/><circle cx="137.7" cy="63.4" r="23.2" fill="rgb(0,182,176)" fill-opacity="0.525"/><circle cx="145.8" cy="97.3" r="22.4" fill="rgb(0,182,174)" fill-opacity="0.506"/><circle cx="140.8" cy="140.8" r="19.8" fill="rgb(0,180,169)" fill-opacity="0.447"/><circle cx="140.6" cy="182.1" r="15.0" fill="rgb(0,177,160)" fill-opacity="0.336"/><circle cx="139.1" cy="218.2" r="11.8" fill="rgb(0,175,154)" fill-opacity="0.263"/><circle cx="136.8" cy="254.4" r="12.2" fill="rgb(0,175,155)" fill-opacity="0.273"/><circle cx="134.4" cy="300.2" r="18.7" fill="rgb(0,180,167)" fill-opacity="0.420"/><circle cx="143.9" cy="338.7" r="25.1" fill="rgb(0,184,179)" fill-opacity="0.567"/><circle cx="131.6" cy="377.8" r="27.4" fill="rgb(0,185,183)" fill-opacity="0.621"/><circle cx="134.5" cy="418.8" r="26.1" fill="rgb(0,184,181)" fill-opacity="0.591"/><circle cx="136.8" cy="447.2" r="24.4" fill="rgb(0,183,178)" fill-opacity="0.551"/><circle cx="138.1" cy="498.2" r="21.7" fill="rgb(0,182,173)" fill-opacity="0.490"/><circle cx="134.7" cy="534.3" r="21.1" fill="rgb(0,181,172)" fill-opacity="0.477"/><circle cx="142.8" cy="566.0" r="17.3" fill="rgb(0,179,165)" fill-opacity="0.389"/><circle cx="135.9" cy="605.7" r="13.2" fill="rgb(0,176,157)" fill-opacity="0.295"/><circle cx="175.2" cy="21.9" r="23.3" fill="rgb(0,183,176)" fill-opacity="0.526"/><circle cx="179.8" cy="51.2" r="22.2" fill="rgb(0,182,174)" fill-opacity="0.501"/><circle cx="172.4" cy="105.6" r="21.5" fill="rgb(0,181,173)" fill-opacity="0.486"/><circle cx="182.1" cy="140.6" r="18.8" fill="rgb(0,180,167)" fill-opacity="0.423"/><circle cx="179.3" cy="179.3" r="15.1" fill="rgb(0,177,160)" fill-opacity="0.337"/><circle cx="182.1" cy="216.6" r="12.1" fill="rgb(0,175,155)" fill-opacity="0.270"/><circle cx="176.8" cy="249.6" r="12.3" fill="rgb(0,175,155)" fill-opacity="0.274"/><circle cx="177.7" cy="290.1" r="17.4" fill="rgb(0,179,165)" fill-opacity="0.392"/><circle cx="185.2" cy="336.3" r="25.1" fill="rgb(0,184,179)" fill-opacity="0.567"/><circle cx="171.2" cy="371.2" r="27.9" fill="rgb(0,185,184)" fill-opacity="0.631"/><circle cx="181.8" cy="414.0" r="26.5" fill="rgb(0,185,182)" fill-opacity="0.601"/><circle cx="176.1" cy="448.7" r="23.8" fill="rgb(0,183,177)" fill-opacity="0.538"/><circle cx="176.7" cy="496.0" r="20.8" fill="rgb(0,181,171)" fill-opacity="0.469"/><circle cx="182.5" cy="530.9" r="20.2" fill="rgb(0,181,170)" fill-opacity="0.455"/><circle cx="183.1" cy="566.6" r="16.8" fill="rgb(0,178,164)" fill-opacity="0.376"/><circle cx="179.3" cy="608.3" r="10.9" fill="rgb(0,174,152)" fill-opacity="0.243"/><circle cx="215.6" cy="20.8" r="23.3" fill="rgb(0,183,176)" fill-opacity="0.526"/><circle cx="213.6" cy="63.6" r="19.1" fill="rgb(0,180,168)" fill-opacity="0.430"/><circle cx="212.8" cy="98.2" r="18.0" fill="rgb(0,179,166)" fill-opacity="0.404"/><circle cx="218.2" cy="139.1" r="15.7" fill="rgb(0,178,161)" fill-opacity="0.351"/><circle cx="216.6" cy="182.1" r="12.9" fill="rgb(0,176,156)" fill-opacity="0.288"/><circle cx="215.1" cy="215.1" r="11.2" fill="rgb(0,174,153)" fill-opacity="0.249"/><circle cx="214.3" cy="256.9" r="12.1" fill="rgb(0,175,155)" fill-opacity="0.270"/><circle cx="221.7" cy="298.9" r="18.7" fill="rgb(0,180,167)" fill-opacity="0.422"/><circle cx="214.7" cy="331.8" r="24.8" fill="rgb(0,183,179)" fill-opacity="0.561"/><circle cx="217.1" cy="371.1" r="28.8" fill="rgb(0,186,186)" fill-opacity="0.652"/><circle cx="214.0" cy="419.2" r="27.4" fill="rgb(0,185,183)" fill-opacity="0.619"/><circle cx="220.9" cy="449.9" r="26.1" fill="rgb(0,184,181)" fill-opacity="0.590"/><circle cx="213.8" cy="496.7" r="23.3" fill="rgb(0,183,176)" fill-opacity="0.527"/><circle cx="220.3" cy="531.4" r="23.4" fill="rgb(0,183,176)" fill-opacity="0.529"/><circle cx="221.2" cy="573.6" r="21.2" fill="rgb(0,181,172)" fill-opacity="0.477"/><circle cx="212.6" cy="612.7" r="16.3" fill="rgb(0,178,163)" fill-opacity="0.365"/><circle cx="260.8" cy="24.9" r="22.2" fill="rgb(0,182,174)" fill-opacity="0.501"/><circle cx="255.0" cy="52.2" r="16.3" fill="rgb(0,178,163)" fill-opacity="0.366"/><circle cx="257.9" cy="103.1" r="11.2" fill="rgb(0,174,153)" fill-opacity="0.248"/><circle cx="254.4" cy="136.8" r="11.2" fill="rgb(0,174,153)" fill-opacity="0.249"/><circle cx="249.6" cy="176.8" r="10.7" fill="rgb(0,174,152)" fill-opacity="0.236"/><circle cx="256.9" cy="214.3" r="9.5" fill="rgb(0,173,150)" fill-opacity="0.210"/><circle cx="258.6" cy="258.6" r="11.0" fill="rgb(0,174,152)" fill-opacity="0.244"/><circle cx="249.4" cy="291.4" r="17.0" fill="rgb(0,178,164)" fill-opacity="0.382"/><circle cx="257.5" cy="330.4" r="25.3" fill="rgb(0,184,180)" fill-opacity="0.572"/><circle cx="257.1" cy="374.3" r="30.1" fill="rgb(0,187,188)" fill-opacity="0.683"/><circle cx="256.2" cy="419.4" r="29.5" fill="rgb(0,186,187)" fill-opacity="0.668"/><circle cx="251.1" cy="451.0" r="28.3" fill="rgb(0,186,185)" fill-opacity="0.641"/><circle cx="256.1" cy="488.3" r="27.8" fill="rgb(0,185,184)" fill-opacity="0.629"/><circle cx="257.8" cy="526.1" r="27.7" fill="rgb(0,185,184)" fill-opacity="0.628"/><circle cx="259.7" cy="573.9" r="28.1" fill="rgb(0,186,185)" fill-opacity="0.637"/><circle cx="252.8" cy="611.8" r="26.7" fill="rgb(0,185,182)" fill-opacity="0.604"/><circle cx="296.4" cy="13.1" r="25.6" fill="rgb(0,184,180)" fill-opacity="0.578"/><circle cx="288.5" cy="52.5" r="14.0" fill="rgb(0,176,158)" fill-opacity="0.312"/><circle cx="297.4" cy="103.0" r="7.4" fill="rgb(0,172,145)" fill-opacity="0.162"/><circle cx="300.2" cy="134.4" r="7.6" fill="rgb(0,172,146)" fill-opacity="0.165"/><circle cx="290.1" cy="177.7" r="8.3" fill="rgb(0,172,147)" fill-opacity="0.182"/><circle cx="298.9" cy="221.7" r="8.4" fill="rgb(0,173,147)" fill-opacity="0.185"/><circle cx="291.4" cy="249.4" r="9.3" fill="rgb(0,173,149)" fill-opacity="0.204"/><circle cx="295.8" cy="295.8" r="17.7" fill="rgb(0,179,165)" fill-opacity="0.398"/><circle cx="298.0" cy="334.5" r="26.5" fill="rgb(0,185,182)" fill-opacity="0.601"/><circle cx="295.8" cy="372.7" r="30.9" fill="rgb(0,187,190)" fill-opacity="0.702"/><circle cx="289.6" cy="411.7" r="30.7" fill="rgb(0,187,190)" fill-opacity="0.697"/><circle cx="295.4" cy="456.0" r="30.6" fill="rgb(0,187,189)" fill-opacity="0.693"/><circle cx="297.7" cy="489.4" r="30.4" fill="rgb(0,187,189)" fill-opacity="0.690"/><circle cx="297.4" cy="534.8" r="30.7" fill="rgb(0,187,189)" fill-opacity="0.696"/><circle cx="293.5" cy="577.2" r="32.4" fill="rgb(0,188,192)" fill-opacity="0.734"/><circle cx="294.4" cy="611.4" r="34.2" fill="rgb(0,189,196)" fill-opacity="0.776"/><circle cx="337.7" cy="14.8" r="23.7" fill="rgb(0,183,177)" fill-opacity="0.536"/><circle cx="337.9" cy="55.4" r="12.4" fill="rgb(0,175,155)" fill-opacity="0.277"/><circle cx="332.8" cy="92.4" r="7.3" fill="rgb(0,172,145)" fill-opacity="0.159"/><circle cx="338.7" cy="143.9" r="8.6" fill="rgb(0,173,148)" fill-opacity="0.189"/><circle cx="336.3" cy="185.2" r="10.3" fill="rgb(0,174,151)" fill-opacity="0.227"/><circle cx="331.8" cy="214.7" r="10.5" fill="rgb(0,174,151)" fill-opacity="0.232"/><circle cx="330.4" cy="257.5" r="11.8" fill="rgb(0,175,154)" fill-opacity="0.263"/><circle cx="334.5" cy="298.0" r="18.9" fill="rgb(0,180,168)" fill-opacity="0.424"/><circle cx="339.1" cy="339.1" r="25.8" fill="rgb(0,184,180)" fill-opacity="0.583"/><circle cx="328.9" cy="376.4" r="29.7" fill="rgb(0,187,188)" fill-opacity="0.672"/><circle cx="338.0" cy="418.2" r="29.1" fill="rgb(0,186,187)" fill-opacity="0.659"/><circle cx="340.0" cy="458.5" r="30.0" fill="rgb(0,187,188)" fill-opacity="0.681"/><circle cx="331.2" cy="490.6" r="30.7" fill="rgb(0,187,189)" fill-opacity="0.696"/><circle cx="341.8" cy="532.5" r="31.2" fill="rgb(0,188,190)" fill-opacity="0.709"/><circle cx="337.2" cy="568.3" r="32.4" fill="rgb(0,188,192)" fill-opacity="0.734"/><circle cx="342.6" cy="609.7" r="34.1" fill="rgb(0,189,195)" fill-opacity="0.773"/><circle cx="380.9" cy="21.4" r="18.0" fill="rgb(0,179,166)" fill-opacity="0.406"/><circle cx="376.5" cy="53.6" r="11.7" fill="rgb(0,175,154)" fill-opacity="0.259"/><circle cx="371.7" cy="102.3" r="7.5" fill="rgb(0,172,146)" fill-opacity="0.164"/><circle cx="377.8" cy="131.6" r="9.8" fill="rgb(0,173,150)" fill-opacity="0.217"/><circle cx="371.2" cy="171.2" r="14.3" fill="rgb(0,177,159)" fill-opacity="0.320"/><circle cx="371.1" cy="217.1" r="18.9" fill="rgb(0,180,168)" fill-opacity="0.425"/><circle cx="374.3" cy="257.1" r="20.4" fill="rgb(0,181,170)" fill-opacity="0.459"/><circle cx="372.7" cy="295.8" r="20.9" fill="rgb(0,181,171)" fill-opacity="0.471"/><circle cx="376.4" cy="328.9" r="21.5" fill="rgb(0,181,172)" fill-opacity="0.485"/><circle cx="372.5" cy="372.5" r="22.5" fill="rgb(0,182,174)" fill-opacity="0.508"/><circle cx="375.8" cy="412.2" r="23.7" fill="rgb(0,183,177)" fill-opacity="0.535"/><circle cx="370.7" cy="457.4" r="28.7" fill="rgb(0,186,186)" fill-opacity="0.650"/><circle cx="368.6" cy="498.1" r="31.6" fill="rgb(0,188,191)" fill-opacity="0.717"/><circle cx="371.0" cy="525.3" r="32.1" fill="rgb(0,188,192)" fill-opacity="0.727"/><circle cx="366.4" cy="565.9" r="32.5" fill="rgb(0,188,193)" fill-opacity="0.737"/><circle cx="368.5" cy="608.5" r="33.3" fill="rgb(0,189,194)" fill-opacity="0.756"/><circle cx="407.8" cy="25.0" r="15.1" fill="rgb(0,177,160)" fill-opacity="0.338"/><circle cx="411.3" cy="53.6" r="10.5" fill="rgb(0,174,152)" fill-opacity="0.234"/><circle cx="408.3" cy="100.5" r="7.6" fill="rgb(0,172,146)" fill-opacity="0.166"/><circle cx="418.8" cy="134.5" r="12.1" fill="rgb(0,175,155)" fill-opacity="0.269"/><circle cx="414.0" cy="181.8" r="22.6" fill="rgb(0,182,175)" fill-opacity="0.510"/><circle cx="419.2" cy="214.0" r="29.2" fill="rgb(0,186,187)" fill-opacity="0.661"/><circle cx="419.4" cy="256.2" r="29.5" fill="rgb(0,186,187)" fill-opacity="0.668"/><circle cx="411.7" cy="289.6" r="24.4" fill="rgb(0,183,178)" fill-opacity="0.552"/><circle cx="418.2" cy="338.0" r="17.2" fill="rgb(0,179,164)" fill-opacity="0.386"/><circle cx="412.2" cy="375.8" r="15.3" fill="rgb(0,177,161)" fill-opacity="0.344"/><circle cx="416.5" cy="416.5" r="18.8" fill="rgb(0,180,167)" fill-opacity="0.424"/><circle cx="420.6" cy="454.9" r="26.1" fill="rgb(0,184,181)" fill-opacity="0.591"/><circle cx="407.9" cy="490.1" r="31.9" fill="rgb(0,188,192)" fill-opacity="0.724"/><circle cx="418.4" cy="533.7" r="33.5" fill="rgb(0,189,194)" fill-opacity="0.760"/><circle cx="413.3" cy="574.8" r="32.7" fill="rgb(0,188,193)" fill-opacity="0.743"/><circle cx="417.7" cy="613.0" r="31.9" fill="rgb(0,188,192)" fill-opacity="0.724"/><circle cx="449.9" cy="27.0" r="13.4" fill="rgb(0,176,157)" fill-opacity="0.299"/><circle cx="457.6" cy="57.6" r="10.1" fill="rgb(0,174,151)" fill-opacity="0.224"/><circle cx="447.6" cy="103.8" r="7.9" fill="rgb(0,172,146)" fill-opacity="0.173"/><circle cx="447.2" cy="136.8" r="13.1" fill="rgb(0,176,157)" fill-opacity="0.293"/><circle cx="448.7" cy="176.1" r="23.3" fill="rgb(0,183,176)" fill-opacity="0.527"/><circle cx="449.9" cy="220.9" r="32.1" fill="rgb(0,188,192)" fill-opacity="0.729"/><circle cx="451.0" cy="251.1" r="32.0" fill="rgb(0,188,192)" fill-opacity="0.725"/><circle cx="456.0" cy="295.4" r="24.6" fill="rgb(0,183,178)" fill-opacity="0.557"/><circle cx="458.5" cy="340.0" r="15.9" fill="rgb(0,178,162)" fill-opacity="0.356"/><circle cx="457.4" cy="370.7" r="12.9" fill="rgb(0,176,156)" fill-opacity="0.287"/><circle cx="454.9" cy="420.6" r="18.2" fill="rgb(0,179,166)" fill-opacity="0.409"/><circle cx="456.3" cy="456.3" r="26.1" fill="rgb(0,184,181)" fill-opacity="0.590"/><circle cx="454.6" cy="490.8" r="32.4" fill="rgb(0,188,192)" fill-opacity="0.734"/><circle cx="458.5" cy="539.2" r="33.7" fill="rgb(0,189,195)" fill-opacity="0.765"/><circle cx="450.7" cy="572.4" r="32.8" fill="rgb(0,188,193)" fill-opacity="0.745"/><circle cx="458.0" cy="609.9" r="31.6" fill="rgb(0,188,191)" fill-opacity="0.716"/><circle cx="494.7" cy="18.8" r="20.3" fill="rgb(0,181,170)" fill-opacity="0.458"/><circle cx="484.6" cy="66.7" r="13.7" fill="rgb(0,176,158)" fill-opacity="0.305"/><circle cx="499.0" cy="98.6" r="16.3" fill="rgb(0,178,163)" fill-opacity="0.367"/><circle cx="498.2" cy="138.1" r="19.5" fill="rgb(0,180,169)" fill-opacity="0.439"/><circle cx="496.0" cy="176.7" r="25.3" fill="rgb(0,184,179)" fill-opacity="0.571"/><circle cx="496.7" cy="213.8" r="30.0" fill="rgb(0,187,188)" fill-opacity="0.681"/><circle cx="488.3" cy="256.1" r="30.3" fill="rgb(0,187,189)" fill-opacity="0.688"/><circle cx="489.4" cy="297.7" r="24.2" fill="rgb(0,183,178)" fill-opacity="0.547"/><circle cx="490.6" cy="331.2" r="18.5" fill="rgb(0,179,167)" fill-opacity="0.417"/><circle cx="498.1" cy="368.6" r="15.5" fill="rgb(0,177,161)" fill-opacity="0.347"/><circle cx="490.1" cy="407.9" r="17.6" fill="rgb(0,179,165)" fill-opacity="0.396"/><circle cx="490.8" cy="454.6" r="26.8" fill="rgb(0,185,182)" fill-opacity="0.607"/><circle cx="485.3" cy="485.3" r="32.2" fill="rgb(0,188,192)" fill-opacity="0.731"/><circle cx="493.8" cy="526.8" r="34.5" fill="rgb(0,189,196)" fill-opacity="0.783"/><circle cx="493.7" cy="565.5" r="33.0" fill="rgb(0,189,194)" fill-opacity="0.749"/><circle cx="498.7" cy="616.9" r="29.9" fill="rgb(0,187,188)" fill-opacity="0.679"/><circle cx="522.5" cy="16.5" r="26.7" fill="rgb(0,185,182)" fill-opacity="0.603"/><circle cx="525.6" cy="57.6" r="24.9" fill="rgb(0,184,179)" fill-opacity="0.563"/><circle cx="527.4" cy="100.3" r="24.4" fill="rgb(0,183,178)" fill-opacity="0.552"/><circle cx="534.3" cy="134.7" r="26.7" fill="rgb(0,185,182)" fill-opacity="0.605"/><circle cx="530.9" cy="182.5" r="27.7" fill="rgb(0,185,184)" fill-opacity="0.627"/><circle cx="531.4" cy="220.3" r="28.6" fill="rgb(0,186,186)" fill-opacity="0.647"/><circle cx="526.1" cy="257.8" r="28.2" fill="rgb(0,186,185)" fill-opacity="0.638"/><circle cx="534.8" cy="297.4" r="24.3" fill="rgb(0,183,178)" fill-opacity="0.550"/><circle cx="532.5" cy="341.8" r="19.9" fill="rgb(0,180,170)" fill-opacity="0.449"/><circle cx="525.3" cy="371.0" r="17.9" fill="rgb(0,179,166)" fill-opacity="0.403"/><circle cx="533.7" cy="418.4" r="22.7" fill="rgb(0,182,175)" fill-opacity="0.512"/><circle cx="539.2" cy="458.5" r="30.0" fill="rgb(0,187,188)" fill-opacity="0.679"/><circle cx="526.8" cy="493.8" r="34.5" fill="rgb(0,189,196)" fill-opacity="0.783"/><circle cx="530.8" cy="530.8" r="35.3" fill="rgb(0,190,198)" fill-opacity="0.801"/><circle cx="530.8" cy="563.1" r="33.1" fill="rgb(0,189,194)" fill-opacity="0.752"/><circle cx="532.0" cy="602.7" r="29.4" fill="rgb(0,186,187)" fill-opacity="0.667"/><circle cx="580.2" cy="13.2" r="35.6" fill="rgb(0,190,198)" fill-opacity="0.808"/><circle cx="576.2" cy="54.8" r="34.6" fill="rgb(0,190,196)" fill-opacity="0.785"/><circle cx="570.0" cy="93.0" r="33.6" fill="rgb(0,189,195)" fill-opacity="0.763"/><circle cx="566.0" cy="142.8" r="31.4" fill="rgb(0,188,191)" fill-opacity="0.712"/><circle cx="566.6" cy="183.1" r="28.8" fill="rgb(0,186,186)" fill-opacity="0.653"/><circle cx="573.6" cy="221.2" r="26.9" fill="rgb(0,185,183)" fill-opacity="0.609"/><circle cx="573.9" cy="259.7" r="26.2" fill="rgb(0,184,181)" fill-opacity="0.594"/><circle cx="577.2" cy="293.5" r="24.6" fill="rgb(0,183,178)" fill-opacity="0.556"/><circle cx="568.3" cy="337.2" r="22.0" fill="rgb(0,182,173)" fill-opacity="0.497"/><circle cx="565.9" cy="366.4" r="21.0" fill="rgb(0,181,171)" fill-opacity="0.472"/><circle cx="574.8" cy="413.3" r="24.1" fill="rgb(0,183,177)" fill-opacity="0.545"/><circle cx="572.4" cy="450.7" r="29.8" fill="rgb(0,187,188)" fill-opacity="0.676"/><circle cx="565.5" cy="493.7" r="35.4" fill="rgb(0,190,198)" fill-opacity="0.805"/><circle cx="563.1" cy="530.8" r="35.9" fill="rgb(0,190,199)" fill-opacity="0.815"/><circle cx="564.2" cy="564.2" r="33.0" fill="rgb(0,189,194)" fill-opacity="0.749"/><circle cx="563.2" cy="608.9" r="27.8" fill="rgb(0,185,184)" fill-opacity="0.629"/><circle cx="619.0" cy="17.6" r="32.0" fill="rgb(0,188,192)" fill-opacity="0.726"/><circle cx="603.7" cy="60.7" r="33.7" fill="rgb(0,189,195)" fill-opacity="0.764"/><circle cx="609.2" cy="103.5" r="32.5" fill="rgb(0,188,193)" fill-opacity="0.738"/><circle cx="605.7" cy="135.9" r="31.8" fill="rgb(0,188,191)" fill-opacity="0.721"/><circle cx="608.3" cy="179.3" r="28.8" fill="rgb(0,186,186)" fill-opacity="0.654"/><circle cx="612.7" cy="212.6" r="27.2" fill="rgb(0,185,183)" fill-opacity="0.617"/><circle cx="611.8" cy="252.8" r="26.6" fill="rgb(0,185,182)" fill-opacity="0.603"/><circle cx="611.4" cy="294.4" r="24.9" fill="rgb(0,184,179)" fill-opacity="0.562"/><circle cx="609.7" cy="342.6" r="22.4" fill="rgb(0,182,174)" fill-opacity="0.506"/><circle cx="608.5" cy="368.5" r="21.7" fill="rgb(0,182,173)" fill-opacity="0.490"/><circle cx="613.0" cy="417.7" r="25.1" fill="rgb(0,184,179)" fill-opacity="0.567"/><circle cx="609.9" cy="458.0" r="31.0" fill="rgb(0,187,190)" fill-opacity="0.703"/><circle cx="616.9" cy="498.7" r="35.4" fill="rgb(0,190,198)" fill-opacity="0.804"/><circle cx="602.7" cy="532.0" r="35.8" fill="rgb(0,190,198)" fill-opacity="0.812"/><circle cx="608.9" cy="563.2" r="32.9" fill="rgb(0,189,193)" fill-opacity="0.747"/><circle cx="609.2" cy="609.2" r="27.5" fill="rgb(0,185,184)" fill-opacity="0.622"/><circle cx="644.4" cy="13.3" r="26.1" fill="rgb(0,184,181)" fill-opacity="0.591"/><circle cx="647.9" cy="67.9" r="23.8" fill="rgb(0,183,177)" fill-opacity="0.538"/><circle cx="641.9" cy="103.7" r="25.3" fill="rgb(0,184,180)" fill-opacity="0.571"/><circle cx="647.4" cy="131.0" r="24.4" fill="rgb(0,183,178)" fill-opacity="0.552"/><circle cx="648.4" cy="178.0" r="26.4" fill="rgb(0,184,182)" fill-opacity="0.597"/><circle cx="648.1" cy="211.5" r="27.7" fill="rgb(0,185,184)" fill-opacity="0.626"/><circle cx="653.5" cy="262.1" r="27.7" fill="rgb(0,185,184)" fill-opacity="0.627"/><circle cx="647.8" cy="292.4" r="26.2" fill="rgb(0,184,181)" fill-opacity="0.593"/><circle cx="650.0" cy="328.7" r="24.5" fill="rgb(0,183,178)" fill-opacity="0.555"/><circle cx="652.0" cy="373.4" r="23.5" fill="rgb(0,183,176)" fill-opacity="0.531"/><circle cx="646.1" cy="417.8" r="25.8" fill="rgb(0,184,180)" fill-opacity="0.584"/><circle cx="653.4" cy="457.7" r="30.3" fill="rgb(0,187,189)" fill-opacity="0.688"/><circle cx="656.3" cy="486.9" r="33.0" fill="rgb(0,189,194)" fill-opacity="0.748"/><circle cx="647.0" cy="536.9" r="33.8" fill="rgb(0,189,195)" fill-opacity="0.768"/><circle cx="659.3" cy="569.2" r="30.9" fill="rgb(0,187,190)" fill-opacity="0.701"/><circle cx="643.8" cy="617.7" r="26.7" fill="rgb(0,185,182)" fill-opacity="0.604"/><circle cx="690.9" cy="25.4" r="14.0" fill="rgb(0,176,158)" fill-opacity="0.312"/><circle cx="689.3" cy="59.5" r="13.1" fill="rgb(0,176,157)" fill-opacity="0.292"/><circle cx="681.7" cy="104.0" r="14.5" fill="rgb(0,177,159)" fill-opacity="0.325"/><circle cx="693.2" cy="141.2" r="16.4" fill="rgb(0,178,163)" fill-opacity="0.367"/><circle cx="695.2" cy="180.4" r="23.5" fill="rgb(0,183,176)" fill-opacity="0.531"/><circle cx="684.7" cy="220.8" r="28.8" fill="rgb(0,186,186)" fill-opacity="0.652"/><circle cx="684.4" cy="254.0" r="29.0" fill="rgb(0,186,186)" fill-opacity="0.656"/><circle cx="687.1" cy="290.8" r="27.8" fill="rgb(0,185,184)" fill-opacity="0.629"/><circle cx="683.7" cy="334.8" r="25.8" fill="rgb(0,184,180)" fill-opacity="0.583"/><circle cx="687.0" cy="369.6" r="25.1" fill="rgb(0,184,179)" fill-opacity="0.568"/><circle cx="695.5" cy="419.6" r="27.1" fill="rgb(0,185,183)" fill-opacity="0.613"/><circle cx="690.0" cy="457.5" r="29.8" fill="rgb(0,187,188)" fill-opacity="0.675"/><circle cx="689.1" cy="493.8" r="32.0" fill="rgb(0,188,192)" fill-opacity="0.725"/><circle cx="683.3" cy="525.4" r="32.5" fill="rgb(0,188,193)" fill-opacity="0.738"/><circle cx="697.5" cy="570.2" r="29.9" fill="rgb(0,187,188)" fill-opacity="0.677"/><circle cx="689.2" cy="610.9" r="27.2" fill="rgb(0,185,183)" fill-opacity="0.616"/><circle cx="719.5" cy="23.4" r="10.2" fill="rgb(0,174,151)" fill-opacity="0.226"/><circle cx="737.7" cy="60.6" r="8.7" fill="rgb(0,173,148)" fill-opacity="0.191"/><circle cx="722.6" cy="102.3" r="8.4" fill="rgb(0,172,147)" fill-opacity="0.183"/><circle cx="728.6" cy="140.5" r="13.7" fill="rgb(0,176,158)" fill-opacity="0.305"/><circle cx="729.3" cy="182.0" r="23.0" fill="rgb(0,182,175)" fill-opacity="0.520"/><circle cx="731.8" cy="221.5" r="29.3" fill="rgb(0,186,187)" fill-opacity="0.663"/><circle cx="731.0" cy="253.8" r="29.6" fill="rgb(0,187,187)" fill-opacity="0.671"/><circle cx="720.6" cy="289.2" r="28.5" fill="rgb(0,186,186)" fill-opacity="0.647"/><circle cx="724.9" cy="338.9" r="26.6" fill="rgb(0,185,182)" fill-opacity="0.602"/><circle cx="722.2" cy="371.9" r="26.0" fill="rgb(0,184,181)" fill-opacity="0.588"/><circle cx="733.8" cy="417.3" r="27.3" fill="rgb(0,185,183)" fill-opacity="0.618"/><circle cx="730.1" cy="459.3" r="29.6" fill="rgb(0,187,188)" fill-opacity="0.672"/><circle cx="727.3" cy="499.2" r="31.4" fill="rgb(0,188,191)" fill-opacity="0.712"/><circle cx="733.5" cy="532.9" r="31.2" fill="rgb(0,188,190)" fill-opacity="0.708"/><circle cx="727.2" cy="562.0" r="30.0" fill="rgb(0,187,188)" fill-opacity="0.681"/><circle cx="726.1" cy="618.5" r="26.8" fill="rgb(0,185,182)" fill-opacity="0.607"/><circle cx="771.3" cy="24.2" r="9.5" fill="rgb(0,173,150)" fill-opacity="0.211"/><circle cx="772.1" cy="57.4" r="8.8" fill="rgb(0,173,148)" fill-opacity="0.195"/><circle cx="773.3" cy="91.2" r="8.5" fill="rgb(0,173,148)" fill-opacity="0.187"/><circle cx="763.0" cy="134.1" r="12.0" fill="rgb(0,175,154)" fill-opacity="0.266"/><circle cx="769.5" cy="171.4" r="18.3" fill="rgb(0,179,167)" fill-opacity="0.412"/><circle cx="763.2" cy="223.8" r="26.3" fill="rgb(0,184,181)" fill-opacity="0.596"/><circle cx="773.3" cy="256.6" r="25.2" fill="rgb(0,184,179)" fill-opacity="0.569"/><circle cx="769.0" cy="296.3" r="26.6" fill="rgb(0,185,182)" fill-opacity="0.603"/><circle cx="770.9" cy="331.9" r="27.5" fill="rgb(0,185,184)" fill-opacity="0.624"/><circle cx="760.6" cy="367.0" r="27.4" fill="rgb(0,185,183)" fill-opacity="0.619"/><circle cx="771.5" cy="414.0" r="28.6" fill="rgb(0,186,186)" fill-opacity="0.647"/><circle cx="765.7" cy="453.2" r="29.3" fill="rgb(0,186,187)" fill-opacity="0.664"/><circle cx="771.8" cy="497.2" r="30.0" fill="rgb(0,187,188)" fill-opacity="0.680"/><circle cx="772.3" cy="537.2" r="29.8" fill="rgb(0,187,188)" fill-opacity="0.677"/><circle cx="766.2" cy="564.1" r="29.4" fill="rgb(0,186,187)" fill-opacity="0.666"/><circle cx="767.7" cy="604.8" r="27.9" fill="rgb(0,185,184)" fill-opacity="0.632"/><circle cx="805.3" cy="18.2" r="8.8" fill="rgb(0,173,148)" fill-opacity="0.194"/><circle cx="812.4" cy="56.5" r="8.9" fill="rgb(0,173,148)" fill-opacity="0.197"/><circle cx="808.5" cy="102.7" r="9.1" fill="rgb(0,173,149)" fill-opacity="0.201"/><circle cx="812.7" cy="135.9" r="10.9" fill="rgb(0,174,152)" fill-opacity="0.241"/><circle cx="805.7" cy="182.4" r="15.7" fill="rgb(0,178,162)" fill-opacity="0.352"/><circle cx="806.1" cy="217.1" r="18.2" fill="rgb(0,179,166)" fill-opacity="0.410"/><circle cx="808.0" cy="257.1" r="19.2" fill="rgb(0,180,168)" fill-opacity="0.432"/><circle cx="805.2" cy="298.0" r="24.2" fill="rgb(0,183,178)" fill-opacity="0.547"/><circle cx="806.4" cy="330.1" r="28.4" fill="rgb(0,186,185)" fill-opacity="0.643"/><circle cx="812.1" cy="369.5" r="31.9" fill="rgb(0,188,192)" fill-opacity="0.723"/><circle cx="804.0" cy="413.4" r="30.6" fill="rgb(0,187,189)" fill-opacity="0.694"/><circle cx="803.0" cy="453.3" r="29.4" fill="rgb(0,186,187)" fill-opacity="0.665"/><circle cx="810.5" cy="489.9" r="28.1" fill="rgb(0,186,185)" fill-opacity="0.636"/><circle cx="808.2" cy="538.1" r="28.0" fill="rgb(0,185,184)" fill-opacity="0.633"/><circle cx="800.6" cy="575.6" r="28.5" fill="rgb(0,186,185)" fill-opacity="0.645"/><circle cx="800.9" cy="614.9" r="28.6" fill="rgb(0,186,186)" fill-opacity="0.648"/><circle cx="849.5" cy="18.3" r="7.9" fill="rgb(0,172,146)" fill-opacity="0.173"/><circle cx="849.3" cy="54.2" r="8.9" fill="rgb(0,173,148)" fill-opacity="0.197"/><circle cx="849.0" cy="91.9" r="9.5" fill="rgb(0,173,150)" fill-opacity="0.210"/><circle cx="851.4" cy="142.6" r="10.2" fill="rgb(0,174,151)" fill-opacity="0.226"/><circle cx="841.0" cy="181.8" r="11.8" fill="rgb(0,175,154)" fill-opacity="0.263"/><circle cx="842.6" cy="216.3" r="12.6" fill="rgb(0,175,156)" fill-opacity="0.281"/><circle cx="839.0" cy="256.0" r="14.5" fill="rgb(0,177,159)" fill-opacity="0.325"/><circle cx="845.5" cy="294.6" r="21.1" fill="rgb(0,181,172)" fill-opacity="0.477"/><circle cx="850.0" cy="336.1" r="30.4" fill="rgb(0,187,189)" fill-opacity="0.690"/><circle cx="852.3" cy="375.6" r="34.6" fill="rgb(0,190,196)" fill-opacity="0.786"/><circle cx="850.0" cy="414.7" r="32.8" fill="rgb(0,188,193)" fill-opacity="0.744"/><circle cx="852.0" cy="451.5" r="29.6" fill="rgb(0,186,187)" fill-opacity="0.670"/><circle cx="844.3" cy="487.2" r="26.9" fill="rgb(0,185,183)" fill-opacity="0.609"/><circle cx="844.3" cy="537.1" r="26.4" fill="rgb(0,185,182)" fill-opacity="0.598"/><circle cx="847.3" cy="568.5" r="27.6" fill="rgb(0,185,184)" fill-opacity="0.624"/><circle cx="851.5" cy="604.3" r="29.3" fill="rgb(0,186,187)" fill-opacity="0.665"/><circle cx="891.0" cy="19.4" r="7.7" fill="rgb(0,172,146)" fill-opacity="0.169"/><circle cx="885.4" cy="59.5" r="8.9" fill="rgb(0,173,148)" fill-opacity="0.196"/><circle cx="890.6" cy="96.0" r="9.2" fill="rgb(0,173,149)" fill-opacity="0.203"/><circle cx="887.8" cy="141.5" r="10.2" fill="rgb(0,174,151)" fill-opacity="0.225"/><circle cx="890.0" cy="180.2" r="11.7" fill="rgb(0,175,154)" fill-opacity="0.260"/><circle cx="882.2" cy="214.4" r="12.0" fill="rgb(0,175,154)" fill-opacity="0.267"/><circle cx="887.6" cy="252.1" r="13.6" fill="rgb(0,176,158)" fill-opacity="0.304"/><circle cx="888.0" cy="295.8" r="21.8" fill="rgb(0,182,173)" fill-opacity="0.492"/><circle cx="885.6" cy="334.6" r="30.6" fill="rgb(0,187,189)" fill-opacity="0.693"/><circle cx="890.5" cy="372.2" r="35.0" fill="rgb(0,190,197)" fill-opacity="0.795"/><circle cx="890.0" cy="407.7" r="33.7" fill="rgb(0,189,195)" fill-opacity="0.766"/><circle cx="886.6" cy="452.4" r="29.7" fill="rgb(0,187,188)" fill-opacity="0.673"/><circle cx="881.8" cy="494.1" r="26.4" fill="rgb(0,185,182)" fill-opacity="0.597"/><circle cx="882.1" cy="530.8" r="26.1" fill="rgb(0,184,181)" fill-opacity="0.590"/><circle cx="889.0" cy="569.4" r="27.8" fill="rgb(0,185,184)" fill-opacity="0.630"/><circle cx="882.2" cy="611.1" r="29.9" fill="rgb(0,187,188)" fill-opacity="0.678"/><circle cx="924.2" cy="25.1" r="7.3" fill="rgb(0,172,145)" fill-opacity="0.160"/><circle cx="922.1" cy="61.2" r="7.8" fill="rgb(0,172,146)" fill-opacity="0.171"/><circle cx="925.2" cy="91.2" r="7.9" fill="rgb(0,172,146)" fill-opacity="0.172"/><circle cx="918.6" cy="135.1" r="10.1" fill="rgb(0,174,151)" fill-opacity="0.222"/><circle cx="925.9" cy="179.5" r="15.1" fill="rgb(0,177,160)" fill-opacity="0.337"/><circle cx="927.8" cy="215.0" r="18.6" fill="rgb(0,179,167)" fill-opacity="0.418"/><circle cx="928.6" cy="255.0" r="20.3" fill="rgb(0,181,170)" fill-opacity="0.457"/><circle cx="930.7" cy="293.2" r="25.9" fill="rgb(0,184,181)" fill-opacity="0.585"/><circle cx="922.4" cy="331.0" r="31.6" fill="rgb(0,188,191)" fill-opacity="0.717"/><circle cx="926.0" cy="376.0" r="35.7" fill="rgb(0,190,198)" fill-opacity="0.810"/><circle cx="927.4" cy="412.4" r="34.2" fill="rgb(0,189,196)" fill-opacity="0.777"/><circle cx="925.8" cy="448.2" r="31.2" fill="rgb(0,187,190)" fill-opacity="0.708"/><circle cx="927.9" cy="486.0" r="28.4" fill="rgb(0,186,185)" fill-opacity="0.643"/><circle cx="922.4" cy="530.9" r="27.5" fill="rgb(0,185,184)" fill-opacity="0.622"/><circle cx="923.9" cy="573.4" r="29.3" fill="rgb(0,186,187)" fill-opacity="0.665"/><circle cx="926.2" cy="607.6" r="31.3" fill="rgb(0,188,190)" fill-opacity="0.710"/><circle cx="961.8" cy="14.9" r="6.7" fill="rgb(0,171,144)" fill-opacity="0.145"/><circle cx="966.1" cy="58.1" r="6.2" fill="rgb(0,171,143)" fill-opacity="0.134"/><circle cx="957.8" cy="99.6" r="6.4" fill="rgb(0,171,144)" fill-opacity="0.139"/><circle cx="963.2" cy="131.5" r="9.6" fill="rgb(0,173,150)" fill-opacity="0.212"/><circle cx="965.0" cy="173.0" r="18.0" fill="rgb(0,179,166)" fill-opacity="0.406"/><circle cx="971.9" cy="211.4" r="25.8" fill="rgb(0,184,180)" fill-opacity="0.584"/><circle cx="962.5" cy="259.3" r="26.7" fill="rgb(0,185,182)" fill-opacity="0.605"/><circle cx="964.6" cy="295.4" r="30.4" fill="rgb(0,187,189)" fill-opacity="0.689"/><circle cx="964.3" cy="332.1" r="34.3" fill="rgb(0,189,196)" fill-opacity="0.778"/><circle cx="968.7" cy="380.6" r="36.5" fill="rgb(0,191,200)" fill-opacity="0.830"/><circle cx="961.9" cy="411.1" r="35.2" fill="rgb(0,190,197)" fill-opacity="0.799"/><circle cx="958.6" cy="451.8" r="32.0" fill="rgb(0,188,192)" fill-opacity="0.727"/><circle cx="963.2" cy="497.4" r="29.4" fill="rgb(0,186,187)" fill-opacity="0.665"/><circle cx="970.1" cy="527.3" r="29.4" fill="rgb(0,186,187)" fill-opacity="0.667"/><circle cx="969.8" cy="569.3" r="31.1" fill="rgb(0,187,190)" fill-opacity="0.705"/><circle cx="964.5" cy="610.7" r="33.2" fill="rgb(0,189,194)" fill-opacity="0.752"/><circle cx="1005.8" cy="15.0" r="6.4" fill="rgb(0,171,143)" fill-opacity="0.137"/><circle cx="1005.1" cy="55.7" r="5.5" fill="rgb(0,170,142)" fill-opacity="0.119"/><circle cx="1003.5" cy="92.5" r="5.2" fill="rgb(0,170,141)" fill-opacity="0.110"/><circle cx="1001.4" cy="137.4" r="10.8" fill="rgb(0,174,152)" fill-opacity="0.240"/><circle cx="1007.9" cy="176.0" r="20.7" fill="rgb(0,181,171)" fill-opacity="0.467"/><circle cx="1001.7" cy="220.2" r="29.3" fill="rgb(0,186,187)" fill-opacity="0.665"/><circle cx="1004.0" cy="253.2" r="30.4" fill="rgb(0,187,189)" fill-opacity="0.690"/><circle cx="1000.7" cy="294.2" r="32.7" fill="rgb(0,188,193)" fill-opacity="0.743"/><circle cx="999.7" cy="338.4" r="35.8" fill="rgb(0,190,199)" fill-opacity="0.813"/><circle cx="1007.5" cy="373.7" r="36.9" fill="rgb(0,191,201)" fill-opacity="0.839"/><circle cx="1006.7" cy="412.6" r="35.7" fill="rgb(0,190,198)" fill-opacity="0.810"/><circle cx="1005.2" cy="450.1" r="33.0" fill="rgb(0,189,194)" fill-opacity="0.750"/><circle cx="1008.4" cy="492.0" r="30.5" fill="rgb(0,187,189)" fill-opacity="0.691"/><circle cx="1007.2" cy="532.2" r="30.2" fill="rgb(0,187,189)" fill-opacity="0.686"/><circle cx="1002.6" cy="571.3" r="31.9" fill="rgb(0,188,192)" fill-opacity="0.724"/><circle cx="1002.5" cy="613.6" r="34.2" fill="rgb(0,189,196)" fill-opacity="0.776"/><circle cx="1042.7" cy="11.7" r="10.7" fill="rgb(0,174,152)" fill-opacity="0.236"/><circle cx="1038.0" cy="63.9" r="8.9" fill="rgb(0,173,148)" fill-opacity="0.195"/><circle cx="1049.2" cy="95.4" r="11.1" fill="rgb(0,174,153)" fill-opacity="0.247"/><circle cx="1048.8" cy="135.2" r="14.8" fill="rgb(0,177,160)" fill-opacity="0.331"/><circle cx="1049.4" cy="177.4" r="22.7" fill="rgb(0,182,175)" fill-opacity="0.513"/><circle cx="1051.3" cy="218.2" r="28.6" fill="rgb(0,186,186)" fill-opacity="0.647"/><circle cx="1045.2" cy="252.7" r="29.6" fill="rgb(0,187,187)" fill-opacity="0.671"/><circle cx="1044.9" cy="291.9" r="31.0" fill="rgb(0,187,190)" fill-opacity="0.704"/><circle cx="1036.3" cy="336.6" r="34.0" fill="rgb(0,189,195)" fill-opacity="0.772"/><circle cx="1046.9" cy="370.5" r="33.6" fill="rgb(0,189,195)" fill-opacity="0.762"/><circle cx="1041.3" cy="405.8" r="33.5" fill="rgb(0,189,194)" fill-opacity="0.759"/><circle cx="1048.7" cy="456.7" r="28.9" fill="rgb(0,186,186)" fill-opacity="0.656"/><circle cx="1049.5" cy="488.0" r="26.9" fill="rgb(0,185,183)" fill-opacity="0.609"/><circle cx="1049.1" cy="525.4" r="26.4" fill="rgb(0,184,182)" fill-opacity="0.597"/><circle cx="1046.6" cy="572.0" r="27.8" fill="rgb(0,185,184)" fill-opacity="0.629"/><circle cx="1041.8" cy="602.1" r="29.7" fill="rgb(0,187,188)" fill-opacity="0.673"/><circle cx="1079.7" cy="16.4" r="19.7" fill="rgb(0,180,169)" fill-opacity="0.445"/><circle cx="1089.7" cy="60.1" r="22.0" fill="rgb(0,182,174)" fill-opacity="0.497"/><circle cx="1081.3" cy="98.6" r="19.7" fill="rgb(0,180,169)" fill-opacity="0.443"/><circle cx="1085.1" cy="134.8" r="22.2" fill="rgb(0,182,174)" fill-opacity="0.501"/><circle cx="1087.1" cy="177.5" r="25.5" fill="rgb(0,184,180)" fill-opacity="0.576"/><circle cx="1083.5" cy="219.1" r="27.7" fill="rgb(0,185,184)" fill-opacity="0.628"/><circle cx="1084.4" cy="255.0" r="27.9" fill="rgb(0,185,184)" fill-opacity="0.632"/><circle cx="1087.5" cy="295.9" r="27.4" fill="rgb(0,185,183)" fill-opacity="0.621"/><circle cx="1083.9" cy="332.8" r="27.5" fill="rgb(0,185,184)" fill-opacity="0.623"/><circle cx="1084.9" cy="373.8" r="27.2" fill="rgb(0,185,183)" fill-opacity="0.617"/><circle cx="1082.7" cy="413.1" r="26.3" fill="rgb(0,184,181)" fill-opacity="0.596"/><circle cx="1081.9" cy="449.3" r="24.0" fill="rgb(0,183,177)" fill-opacity="0.542"/><circle cx="1087.3" cy="495.5" r="20.3" fill="rgb(0,181,170)" fill-opacity="0.458"/><circle cx="1077.5" cy="536.8" r="21.6" fill="rgb(0,181,173)" fill-opacity="0.488"/><circle cx="1080.8" cy="575.4" r="20.7" fill="rgb(0,181,171)" fill-opacity="0.467"/><circle cx="1080.1" cy="615.9" r="20.5" fill="rgb(0,181,171)" fill-opacity="0.462"/><circle cx="1125.5" cy="17.0" r="29.7" fill="rgb(0,187,188)" fill-opacity="0.672"/><circle cx="1115.8" cy="53.5" r="28.1" fill="rgb(0,186,185)" fill-opacity="0.636"/><circle cx="1117.9" cy="97.9" r="28.4" fill="rgb(0,186,185)" fill-opacity="0.644"/><circle cx="1121.2" cy="133.3" r="28.6" fill="rgb(0,186,186)" fill-opacity="0.647"/><circle cx="1128.4" cy="182.4" r="27.7" fill="rgb(0,185,184)" fill-opacity="0.627"/><circle cx="1114.5" cy="222.2" r="27.0" fill="rgb(0,185,183)" fill-opacity="0.610"/><circle cx="1115.3" cy="251.8" r="26.7" fill="rgb(0,185,182)" fill-opacity="0.605"/><circle cx="1123.1" cy="295.1" r="24.8" fill="rgb(0,183,179)" fill-opacity="0.560"/><circle cx="1119.1" cy="341.7" r="22.9" fill="rgb(0,182,175)" fill-opacity="0.516"/><circle cx="1126.0" cy="376.7" r="21.6" fill="rgb(0,181,173)" fill-opacity="0.487"/><circle cx="1128.5" cy="414.4" r="20.0" fill="rgb(0,180,170)" fill-opacity="0.451"/><circle cx="1117.9" cy="449.6" r="18.6" fill="rgb(0,179,167)" fill-opacity="0.418"/><circle cx="1119.9" cy="498.0" r="15.6" fill="rgb(0,177,161)" fill-opacity="0.350"/><circle cx="1115.3" cy="537.0" r="15.5" fill="rgb(0,177,161)" fill-opacity="0.348"/><circle cx="1115.8" cy="571.8" r="14.1" fill="rgb(0,176,158)" fill-opacity="0.315"/><circle cx="1127.9" cy="616.1" r="10.2" fill="rgb(0,174,151)" fill-opacity="0.225"/><circle cx="1154.8" cy="28.7" r="31.0" fill="rgb(0,187,190)" fill-opacity="0.704"/><circle cx="1168.6" cy="49.5" r="30.9" fill="rgb(0,187,190)" fill-opacity="0.700"/><circle cx="1164.0" cy="107.0" r="30.9" fill="rgb(0,187,190)" fill-opacity="0.700"/><circle cx="1156.4" cy="138.3" r="30.0" fill="rgb(0,187,188)" fill-opacity="0.680"/><circle cx="1159.7" cy="182.7" r="28.0" fill="rgb(0,186,185)" fill-opacity="0.634"/><circle cx="1166.6" cy="212.8" r="27.1" fill="rgb(0,185,183)" fill-opacity="0.613"/><circle cx="1163.8" cy="252.2" r="26.5" fill="rgb(0,185,182)" fill-opacity="0.599"/><circle cx="1164.5" cy="297.0" r="24.1" fill="rgb(0,183,177)" fill-opacity="0.545"/><circle cx="1162.8" cy="338.6" r="21.5" fill="rgb(0,181,173)" fill-opacity="0.485"/><circle cx="1157.2" cy="366.5" r="20.7" fill="rgb(0,181,171)" fill-opacity="0.466"/><circle cx="1163.8" cy="413.0" r="19.3" fill="rgb(0,180,168)" fill-opacity="0.434"/><circle cx="1167.1" cy="452.6" r="16.6" fill="rgb(0,178,163)" fill-opacity="0.373"/><circle cx="1168.8" cy="496.0" r="14.3" fill="rgb(0,177,159)" fill-opacity="0.320"/><circle cx="1154.2" cy="531.1" r="13.7" fill="rgb(0,176,158)" fill-opacity="0.306"/><circle cx="1152.4" cy="562.0" r="12.4" fill="rgb(0,175,155)" fill-opacity="0.275"/><circle cx="1166.4" cy="617.9" r="9.9" fill="rgb(0,174,150)" fill-opacity="0.218"/></g>
	<rect width="1200" height="630" fill="url(#scrim)"/>
	<rect x="600" y="220" width="168" height="120" fill="#ffffff"/>
	<g font-family="ui-monospace, 'Fira Mono', Menlo, Monaco, Consolas, monospace" font-weight="700" font-size="140">
		<text x="348" y="329" fill="#ffffff" textLength="252" lengthAdjust="spacingAndGlyphs">SIX</text>
		<text x="600" y="329" fill="#161616" textLength="168" lengthAdjust="spacingAndGlyphs">TO</text>
		<text x="768" y="329" fill="#ffffff" textLength="84" lengthAdjust="spacingAndGlyphs">M</text>
	</g>
	<text x="600" y="452" xml:space="preserve" font-family="ui-monospace, 'Fira Mono', Menlo, Monaco, Consolas, monospace" font-size="34" text-anchor="middle"><tspan fill="#c4c4c4">AI built your first draft. i build </tspan><tspan fill="#ffffff" font-weight="700">your solution.</tspan></text>
	<text x="600" y="544" font-family="ui-monospace, 'Fira Mono', Menlo, Monaco, Consolas, monospace" font-weight="400" font-size="22" fill="#7a7a7a" text-anchor="middle" letter-spacing="4">SIXTOM.COM</text>
</svg>
